<svg width="83" height="33" viewBox="0 0 83 33" fill="none" xmlns="http://www.w3.org/2000/svg">
<g clip-path="url(#clip0_4093_3274)">
<path d="M60.0003 11.4427C60.0117 9.14666 60.7102 6.90663 62.0057 5.01103C63.3013 3.11542 65.1346 1.65102 67.2696 0.806391C69.4047 -0.0382412 71.7436 -0.224435 73.9854 0.271784C76.2272 0.768003 78.2691 1.92391 79.8482 3.59068C81.4274 5.25745 82.4714 7.35876 82.846 9.62405C83.2205 11.8893 82.9084 14.2149 81.9498 16.3012C80.9912 18.3876 79.43 20.1392 77.4673 21.3306C75.5046 22.522 73.2301 23.0986 70.9369 22.9862C67.9763 22.8461 65.1846 21.5663 63.1462 19.4147C61.1077 17.2632 59.9804 14.4065 60.0003 11.4427ZM71.4746 20.6329C76.4704 20.784 80.6418 16.5359 80.693 11.5707C80.7468 6.54666 76.5959 2.29593 71.5719 2.30362C66.5479 2.3113 62.397 6.14463 62.3228 11.3787C62.246 16.7151 66.658 20.7533 71.4746 20.6329Z" fill="white"/>
<path d="M71.3927 4.50072C75.2336 4.4111 78.519 7.51207 78.519 11.3556C78.519 15.4246 75.5537 18.3309 71.7921 18.4743C70.8652 18.5164 69.9391 18.3736 69.068 18.0541C68.1968 17.7346 67.3979 17.2448 66.718 16.6134C66.0381 15.982 65.4906 15.2215 65.1077 14.3763C64.7247 13.5311 64.5137 12.6182 64.4872 11.6906C64.4607 10.7631 64.6191 9.83958 64.9532 8.97391C65.2873 8.10823 65.7904 7.31773 66.4331 6.64849C67.0759 5.97926 67.8455 5.44468 68.6969 5.07593C69.5484 4.70719 70.4648 4.51165 71.3927 4.50072ZM71.4567 16.1211C72.0694 16.1343 72.6786 16.0259 73.2492 15.8021C73.8197 15.5783 74.3402 15.2436 74.7805 14.8173C75.2209 14.3911 75.5723 13.8817 75.8144 13.3187C76.0566 12.7557 76.1847 12.1503 76.1913 11.5375C76.2067 8.97678 74.0711 6.79509 71.5642 6.78996C70.9401 6.79131 70.3224 6.91569 69.7464 7.156C69.1705 7.3963 68.6475 7.74781 68.2075 8.19043C67.7675 8.63304 67.4191 9.15806 67.1822 9.73546C66.9454 10.3128 66.8246 10.9313 66.827 11.5554C66.8458 12.7718 67.341 13.9322 68.2062 14.7874C69.0714 15.6426 70.2376 16.1242 71.4541 16.1287L71.4567 16.1211Z" fill="white"/>
<path d="M0.413574 16.611H3.81576V28.2553H0.413574V16.611Z" fill="white"/>
<path d="M17.2248 21.5931V28.2553H13.8254V22.1047C13.8254 20.2203 12.9531 19.3537 11.4475 19.3537C9.81259 19.3537 8.6335 20.3489 8.6335 22.4933V28.2553H5.23413V16.611H8.48154V17.9754C9.39892 16.9773 10.7722 16.4377 12.3621 16.4377C15.1227 16.4377 17.2248 18.0397 17.2248 21.5931Z" fill="white"/>
<path d="M31.2247 16.611V26.315C31.2247 30.6484 28.8693 32.6418 24.6398 32.6418C22.4167 32.6418 20.2583 32.0994 18.8851 31.037L20.2358 28.6103C21.2376 29.4127 22.8754 29.9327 24.3781 29.9327C26.7785 29.9327 27.8253 28.8508 27.8253 26.7484V26.2507C26.9417 27.2237 25.6444 27.6961 24.1277 27.6961C20.8802 27.6961 18.2632 25.4596 18.2632 22.0627C18.2632 18.6659 20.8802 16.4321 24.1277 16.4321C25.7626 16.4321 27.1162 16.9717 28.0082 18.1096V16.6166L31.2247 16.611ZM27.8675 22.0683C27.8675 20.3573 26.5815 19.2111 24.7918 19.2111C23.002 19.2111 21.6963 20.3573 21.6963 22.0683C21.6963 23.7793 23.0048 24.9284 24.7918 24.9284C26.5787 24.9284 27.8675 23.7821 27.8675 22.0683Z" fill="white"/>
<path d="M39.771 16.4377V19.555C39.4896 19.5354 39.2701 19.513 39.0084 19.513C37.1343 19.513 35.8905 20.5307 35.8905 22.7617V28.2553H32.4883V16.611H35.7385V18.1487C36.5658 17.022 37.9616 16.4377 39.771 16.4377Z" fill="white"/>
<path d="M40.9275 16.611H44.3297V28.2553H40.9275V16.611Z" fill="white"/>
<path d="M46.1841 16.611H49.5835V28.2553H46.1841V16.611Z" fill="white"/>
<path d="M2.11616 15.2048C3.28489 15.2048 4.23233 14.2635 4.23233 13.1024C4.23233 11.9413 3.28489 11 2.11616 11C0.947439 11 0 11.9413 0 13.1024C0 14.2635 0.947439 15.2048 2.11616 15.2048Z" fill="white"/>
<path d="M42.6301 15.2048C43.7988 15.2048 44.7462 14.2635 44.7462 13.1024C44.7462 11.9413 43.7988 11 42.6301 11C41.4614 11 40.5139 11.9413 40.5139 13.1024C40.5139 14.2635 41.4614 15.2048 42.6301 15.2048Z" fill="white"/>
<path d="M47.8837 15.2048C49.0525 15.2048 49.9999 14.2635 49.9999 13.1024C49.9999 11.9413 49.0525 11 47.8837 11C46.715 11 45.7676 11.9413 45.7676 13.1024C45.7676 14.2635 46.715 15.2048 47.8837 15.2048Z" fill="white"/>
</g>
<defs>
<clipPath id="clip0_4093_3274">
<rect width="83" height="33" fill="white"/>
</clipPath>
</defs>
</svg>
