<svg width="18" height="18" viewBox="0 0 18 18" fill="none" xmlns="http://www.w3.org/2000/svg">
<path fill-rule="evenodd" clip-rule="evenodd" d="M11.3854 12.4458C8.73512 14.5685 4.85569 14.4014 2.3989 11.9446C-0.237135 9.30856 -0.237135 5.0347 2.3989 2.39866C5.03494 -0.237379 9.30881 -0.237379 11.9448 2.39866C14.4016 4.85544 14.5687 8.73487 12.446 11.3851L17.6017 16.5408C17.8946 16.8337 17.8946 17.3085 17.6017 17.6014C17.3088 17.8943 16.8339 17.8943 16.541 17.6014L11.3854 12.4458ZM3.45956 10.8839C1.40931 8.83369 1.40931 5.50957 3.45956 3.45932C5.50982 1.40907 8.83393 1.40907 10.8842 3.45932C12.9329 5.50807 12.9344 8.82881 10.8887 10.8794C10.8872 10.8809 10.8857 10.8824 10.8842 10.8839C10.8827 10.8854 10.8812 10.8869 10.8797 10.8884C8.82906 12.9342 5.50831 12.9327 3.45956 10.8839Z" fill="black"/>
</svg>
