<svg width="22" height="20" viewBox="0 0 22 20" fill="none" xmlns="http://www.w3.org/2000/svg">
  <path d="M11.8647 0.996237C11.4794 0.332087 10.5203 0.332084 10.1349 0.996237L7.42083 5.67355C7.23045 6.00163 6.90141 6.22552 6.52634 6.28217L1.44003 7.0504C0.585747 7.17942 0.286087 8.25803 0.951392 8.80923L4.74048 11.9485C5.09123 12.239 5.25615 12.6974 5.17094 13.1448L4.17978 18.35C4.02309 19.1728 4.88688 19.8121 5.62803 19.4219L10.4174 16.9001C10.782 16.7081 11.2177 16.7081 11.5822 16.9001L16.3716 19.4219C17.1128 19.8121 17.9765 19.1728 17.8199 18.35L16.8287 13.1448C16.7435 12.6974 16.9084 12.239 17.2591 11.9485L21.0482 8.80923C21.7135 8.25804 21.4139 7.17942 20.5596 7.0504L15.4733 6.28217C15.0982 6.22552 14.7692 6.00163 14.5788 5.67355L11.8647 0.996237Z" fill="black"/>
</svg>