<svg width="40" height="40" viewBox="0 0 40 40" fill="none" xmlns="http://www.w3.org/2000/svg">
<circle cx="20" cy="20" r="19.5" fill="white" stroke="#999999"/>
<path d="M21.4697 14.5303C21.7626 14.8232 22.2374 14.8232 22.5303 14.5303L23.25 13.8107L23.25 24C23.25 24.4142 23.5858 24.75 24 24.75C24.4142 24.75 24.75 24.4142 24.75 24L24.75 13.8107L25.4697 14.5303C25.7626 14.8232 26.2374 14.8232 26.5303 14.5303C26.8232 14.2374 26.8232 13.7626 26.5303 13.4697L24.5303 11.4697C24.2374 11.1768 23.7626 11.1768 23.4697 11.4697L21.4697 13.4697C21.1768 13.7626 21.1768 14.2374 21.4697 14.5303Z" fill="black"/>
<path d="M16.75 24.1893L17.4697 23.4697C17.7626 23.1768 18.2374 23.1768 18.5303 23.4697C18.8232 23.7626 18.8232 24.2374 18.5303 24.5303L16.5303 26.5303C16.2374 26.8232 15.7626 26.8232 15.4697 26.5303L13.4697 24.5303C13.1768 24.2374 13.1768 23.7626 13.4697 23.4697C13.7626 23.1768 14.2374 23.1768 14.5303 23.4697L15.25 24.1893L15.25 14C15.25 13.5858 15.5858 13.25 16 13.25C16.4142 13.25 16.75 13.5858 16.75 14L16.75 24.1893Z" fill="black"/>
</svg>
